<svg width="24" height="24" xmlns="http://www.w3.org/2000/svg">

 <g>
  <title>background</title>
  <rect fill="none" id="canvas_background" height="402" width="582" y="-1" x="-1"/>
 </g>
 <g>
  <title>Layer 1</title>
  <path fill="#f9f9f4" id="svg_2" d="m23.2,3l-7.5,0l-2.8,0l-12.4,12.3c-0.4,0.4 -0.3,0.9 0.1,1.3l7.1,7.1c0.4,0.4 1,0.4 1.4,0l0.6,-0.7l0.7,0.7c0.4,0.4 0.9,0.4 1.3,0l12.3,-12.4l0,-7.5c0,-0.5 -0.2,-0.8 -0.8,-0.8zm-14.9,20l-7.1,-7.1l12,-11.9l1.4,0l-11.2,11.2c-0.4,0.4 -0.4,1 0,1.4l5.6,5.7l-0.7,0.7zm13.7,-12.5l-11,11.1l-5.6,-5.6l11.2,-11l5.4,0l0,5.5z"/>
  <path fill="#f9f9f4" id="svg_3" d="m18,11c1.1,0 2,-0.9 2,-2s-0.9,-2 -2,-2s-2,0.9 -2,2s0.9,2 2,2zm0,-3c0.6,0 1,0.4 1,1s-0.4,1 -1,1s-1,-0.4 -1,-1s0.4,-1 1,-1z"/>
  <rect fill="#f9f9f4" id="svg_4" y="16.7" x="7.3" width="5" transform="matrix(-0.7071,-0.7071,0.7071,-0.7071,4.5504,36.2989) " height="1"/>
  <rect fill="#f9f9f4" id="svg_5" y="15.3" x="8.7" width="5" transform="matrix(-0.7071,-0.7071,0.7071,-0.7071,7.9643,34.8848) " height="1"/>
 </g>
</svg>