<svg width="24" height="24" xmlns="http://www.w3.org/2000/svg">

 <g>
  <title>background</title>
  <rect fill="none" id="canvas_background" height="402" width="582" y="-1" x="-1"/>
 </g>
 <g>
  <title>Layer 1</title>
  <path fill="#fffff9" stroke="null" id="exit" d="m16.218643,12.025423l5.391282,-5.391282c1.198063,-1.198063 1.198063,-2.995157 0,-4.19322c-1.198063,-1.198063 -2.995157,-1.198063 -4.19322,0l-5.391282,5.391282l-5.391282,-5.391282c-1.198063,-1.198063 -2.995157,-1.198063 -4.19322,0c-1.198063,1.198063 -1.198063,2.995157 0,4.19322l5.391282,5.391282l-5.391282,5.391282c-1.198063,1.198063 -1.198063,2.995157 0,4.19322c0.599031,0.599031 1.347821,0.898547 2.09661,0.898547s1.497578,-0.299516 2.09661,-0.898547l5.391282,-5.391282l5.391282,5.391282c0.599031,0.599031 1.347821,0.898547 2.09661,0.898547s1.497578,-0.299516 2.09661,-0.898547c1.198063,-1.198063 1.198063,-2.995157 0,-4.19322l-5.391282,-5.391282z"/>
 </g>
</svg>