<svg width="10" height="10" xmlns="http://www.w3.org/2000/svg">

 <g>
  <title>background</title>
  <rect fill="none" id="canvas_background" height="12" width="12" y="-1" x="-1"/>
 </g>
 <g>
  <title>Layer 1</title>
  <path stroke="null" id="svg_1" fill="#1D1D1B" d="m5.434828,5.033661l3.734726,-3.73473c0.10207,-0.10207 0.10207,-0.26742 0,-0.36949s-0.26742,-0.10207 -0.36949,0l-3.73473,3.734726l-3.73473,-3.734726c-0.10207,-0.10207 -0.26742,-0.10207 -0.36949,0s-0.10207,0.26742 0,0.36949l3.734726,3.73473l-3.734726,3.73473c-0.10207,0.10207 -0.10207,0.26742 0,0.36949c0.051033,0.051037 0.11772,0.076553 0.184745,0.076553s0.133712,-0.025517 0.184745,-0.076553l3.73473,-3.734726l3.73473,3.734726c0.051033,0.051037 0.11772,0.076553 0.184745,0.076553s0.133712,-0.025517 0.184745,-0.076553c0.10207,-0.10207 0.10207,-0.26742 0,-0.36949l-3.734726,-3.73473z"/>
 </g>
</svg>