<svg width="512" height="512" xmlns="http://www.w3.org/2000/svg">

 <g>
  <title>background</title>
  <rect fill="none" id="canvas_background" height="402" width="582" y="-1" x="-1"/>
 </g>
 <g>
  <title>Layer 1</title>
  <path fill="#fcfcfc" id="svg_4" d="m268.064,256.75l138.593,-138.593c3.124,-3.124 3.124,-8.189 0,-11.313c-3.125,-3.124 -8.189,-3.124 -11.314,0l-138.593,138.592l-138.593,-138.593c-3.124,-3.124 -8.189,-3.124 -11.313,0c-3.125,3.124 -3.125,8.189 0,11.313l138.592,138.594l-138.593,138.593c-3.125,3.125 -3.125,8.189 0,11.314c1.562,1.562 3.609,2.343 5.657,2.343s4.095,-0.781 5.657,-2.343l138.593,-138.593l138.593,138.593c1.563,1.562 3.609,2.343 5.657,2.343s4.095,-0.781 5.657,-2.343c3.124,-3.125 3.124,-8.189 0,-11.314l-138.593,-138.593z"/>
 </g>
</svg>