<svg width="30" height="30" xmlns="http://www.w3.org/2000/svg">

 <g>
  <title>background</title>
  <rect fill="none" id="canvas_background" height="402" width="582" y="-1" x="-1"/>
 </g>
 <g>
  <title>Layer 1</title>
  <path fill="#f9fcfb" id="svg_1" d="m25,22l0,4c0,0.6 -0.4,1 -1,1l-18,0c-0.6,0 -1,-0.4 -1,-1l0,-13c0,-0.6 0.4,-1 1,-1l18,0c0.6,0 1,0.4 1,1l0,4l-4.5,0c-1.4,0 -2.5,1.1 -2.5,2.5c0,1.4 1.1,2.5 2.5,2.5l4.5,0zm-4.5,-3.5c-0.6,0 -1,0.4 -1,1s0.4,1 1,1s1,-0.4 1,-1s-0.4,-1 -1,-1zm-2,-16.5c-1.4,0 -2.5,1.1 -2.5,2.5s1.1,2.5 2.5,2.5s2.5,-1.1 2.5,-2.5s-1.1,-2.5 -2.5,-2.5zm-3.8,8c0.2,-0.4 0.3,-0.8 0.3,-1.3c0,-1.7 -1.3,-3 -3,-3s-3,1.3 -3,3c0,0.5 0.1,0.9 0.3,1.3l5.4,0z" class="st1"/>
 </g>
</svg>