<svg width="256" height="256" xmlns="http://www.w3.org/2000/svg">

 <g>
  <title>background</title>
  <rect fill="none" id="canvas_background" height="402" width="582" y="-1" x="-1"/>
 </g>
 <g>
  <title>Layer 1</title>
  <path fill="#f9f9f4" id="svg_2" d="m252,105.9c-0.4,-2.5 -1,-5.1 -1.7,-7.6c-7.1,-26.2 -26.6,-49 -53.4,-62.6c-6.3,-3.2 -12.9,-5.8 -19.6,-7.9c-12.5,-3.8 -25.4,-5.8 -38.5,-5.8c-15.9,0 -31.1,2.7 -45.4,8c-2.6,1 -4,3.9 -3,6.6c1,2.6 3.9,4 6.6,3c13.1,-4.9 27.2,-7.4 41.8,-7.4c12.1,0 24,1.8 35.4,5.3c6.2,1.9 12.3,4.4 18,7.3c24.3,12.3 41.9,32.8 48.2,56.2c0.6,2.2 1.1,4.5 1.5,6.7c4.5,25.4 -3.5,52 -21,69.5c-2,2 -3.4,4.6 -4.1,7.2l-11.4,39.4l-26.4,0l-3.1,-12.1c-0.6,-2.2 -2.6,-3.8 -4.9,-3.8l-64.2,-0.2c-2.4,0.1 -4.4,1.6 -5,3.8l-3.2,12.3l-26.4,0l-7.4,-26c-1.4,-4.8 -5,-9 -9.4,-10.8c-15.2,-7 -28.8,-15 -40.5,-23.9c-1.2,-0.9 -1.9,-2.4 -1.9,-4l0.1,-48.3l7.4,-0.1c1.6,0 3.1,-0.8 4,-2l25.8,-34.3c1.8,-2.6 0.6,-5.3 -0.4,-7.6c-0.3,-0.9 -0.7,-1.8 -1.1,-2.6l-0.3,-0.7c-1,-2.3 -2.1,-4.6 -3.1,-6.8c-2,-4.1 -4.1,-8.2 -6.3,-12.3c-0.2,-0.5 -0.5,-0.9 -0.7,-1.2c-0.2,-0.4 -0.5,-0.8 -0.7,-1.3c0.1,0 0.1,0 0.2,0c0.9,0 1.8,-0.1 2.9,-0.1c6.2,-0.1 12,0.9 17.1,2.7c1.6,0.6 5,2.2 5.6,2.5c1.1,0.6 7.6,4.4 9.1,5.5c6.7,5 12.1,11.6 15.8,19c1.3,2.5 4.3,3.6 6.8,2.3c2.5,-1.3 3.6,-4.3 2.3,-6.8c-4.6,-9 -11.1,-16.8 -19,-22.8c-2.3,-1.7 -9.9,-6.1 -10.4,-6.4l0,0c-2.3,-1.3 -6.9,-3.1 -7,-3.2c-6.1,-2.2 -12.8,-3.3 -20.2,-3.3c-1.3,0 -2.6,0 -3.8,0.1c-0.8,0 -1.7,0.1 -2.8,0.2c-0.2,0 -0.6,0.1 -0.8,0.1l0,0c-0.1,0 -0.1,0 -0.2,0c-3,0.7 -5.3,2.7 -6.4,5.5c-1,2.7 0,5.3 0.6,7c0.5,1.2 1.1,2.4 1.9,3.8c0.2,0.3 0.3,0.5 0.5,0.8c2.1,4 4.2,8 6.1,11.9c1,2.1 2,4.3 2.9,6.4l0.3,0.7c0.3,0.8 0.6,1.5 1,2.5c0,0 0,0 0,0l-22.5,29.9l-9.9,0.1c-2.8,0 -5,2.3 -5,5.1l-0.1,53.4c0,4.8 2.2,9.3 6,12.1c12.3,9.3 26.6,17.8 42.6,25.1c1.6,0.7 3.2,2.5 3.7,4.3l8.5,29.7c0.6,2.2 2.6,3.7 4.9,3.7l34.3,0c2.3,0 4.4,-1.6 4.9,-3.8l3.2,-12.3l56.2,0.4l3.1,12.1c0.6,2.3 2.6,3.8 4.9,3.8l34.3,0c2.3,0 4.3,-1.5 4.9,-3.7l12.5,-43.3c0.2,-1 0.8,-1.9 1.5,-2.6c19.7,-19.7 28.8,-49.7 23.8,-78.4z"/>
  <path fill="#fffffc" id="svg_3" d="m52.8,111.2c0,9.4 7.7,17.1 17.1,17.1s17.1,-7.7 17.1,-17.1s-7.7,-17.1 -17.1,-17.1s-17.1,7.7 -17.1,17.1zm24,0c0,3.7 -3.2,6.9 -6.9,6.9c-3.7,0 -6.9,-3.2 -6.9,-6.9c0,-3.7 3.2,-6.9 6.9,-6.9c3.7,0 6.9,3.2 6.9,6.9z"/>
 </g>
</svg>